<?xml version="1.0" encoding="UTF-8"?>
<svg version="1.1" viewBox="0 0 1980 1000" width="1280" height="1280" xmlns="http://www.w3.org/2000/svg">
<path transform="translate(0)" d="m0 0h1980v1e3h-1980z" fill="#FDFDFC"/>
<path transform="translate(1463,488)" d="m0 0h47l21 1 3 1 32 2 30 5 24 3 11 3 20 4 27 6 12 2 17 5 8 2 15 4 13 4 19 4 21 6 28 7 25 7 27 7 23 5 8 3 14 3 12 2 1 1 11 2 18 3 25 2 5 1v417h-1980v-402h23l30 1 36 1 19 1h117l23-1 86-3 25-1 53-2 43-3 46-5 23-2 28-3 41-3 15-1 5-1 16-1 11-2 13-1 4-1 39-2 19-2h9l19-2 81-6 15-2 32-2 19-2 24-1 29-3 34-3 46-5 17-2 31-3 36-4 17-2 11-2 40-6 19-3 16-2 15-3 12-2 18-2 31-5 20-2 14-3 30-4 21-2 18-2 41-2 8-1z" fill="#F697AC"/>
<path transform="translate(1216,219)" d="m0 0h39l19 3 8 2 19 3 17 4 13 6 21 4 32 5 24 4 13 2 27 3 49 7 18 2 16 2 54 7 81 7 28 3 62 5 18 1h54l81-6 26-4 18-3 22-4h5v311l-17-1-13-1-18-3-11-2-4-2-14-2-16-4-6-2-31-7-20-6-23-6-13-3-23-6-14-4-17-4-18-5-14-4-24-6-27-6-10-2-21-4-8-2-52-8-32-2-3-1-30-1h-38l-25 1-13 1-38 2-24 3-30 3-24 4-10 2-18 2-26 4-18 2-12 2-15 3-16 2-27 4-12 2-20 3-12 2-52 6-38 4-21 2-25 3-44 4-30 3-25 1-19 2-30 2-15 2-93 7-7 1h-12l-20 2-35 2-4 1-20 2-4 1-16 1-5 1-28 2-50 4-28 3-40 4-21 2-33 2-74 3-114 4h-114l-25-1-37-1-44-2v-293l14-1h67l47 1 26 2 63 5 16 2 53 3 54 4 20 2 39 3 40 4 44 4 54 6 26 2 68 4 43 3h21l22-3 17-4 24-4 26-7 20-6 8-2 29-9 21-7 17-4 15-5 13-8 25-10 12-5 31-11 25-11 28-7 17-3 14-2 37-8 13-2 15-1 34-1 14-3 19-4z" fill="#F3C6D0"/>
<path transform="translate(1216,219)" d="m0 0h39l19 3 8 2 19 3 17 4 13 6 21 4 32 5 24 4 13 2 27 3 49 7 18 2 16 2 54 7 81 7 28 3 62 5 18 1h54l81-6 26-4 18-3 22-4h5v132l-10-1-13-2-10-2-26-4-25-5-39-5-11-2-26-4-16-2-45-6-53-6-43-5-39-3-72-5-19-1-11-1-68-4-63-4-19-1-22-1h-9l-7-1-28-2-51-2-50-3-18-2h-9l-10-1h-17l-24 6-24 8h-6l-4-2-6 1-11 5-15 8-4 3-9 3-10 6-30 15-23 6-12 3-11 2-19 3-23 5-16 3-22 3-29 6-15 4-11 1-12 3-19 4-14 4-33 7-16 3-21 5-24 6-21 3-13 3-6 2-19 4-18 2-9 2-7 1h-19l-10 1-10-1-33-2-9-1-19-2h-13l-29-3-13-2-12-2-21-1-26-3-16-2-8-2-17-1-28-4-9-2-28-3-13-2-17-2-21-3-26-4-1-1-28-4-17-3-11-1-15-3-12-2-11-1-8-2-32-5-21-3-17-2-7-1-18-2v-91l14-1h67l47 1 26 2 63 5 16 2 53 3 54 4 20 2 39 3 40 4 44 4 54 6 26 2 68 4 43 3h21l22-3 17-4 24-4 26-7 20-6 8-2 29-9 21-7 17-4 15-5 13-8 25-10 12-5 31-11 25-11 28-7 17-3 14-2 37-8 13-2 15-1 34-1 14-3 19-4z" fill="#F3D8E1"/>
<path transform="translate(1188,979)" d="m0 0h69l23 1 49 4 79 11 26 4v1h-818v-1l173-1 61-2 171-9 40-2 31-2z" fill="#FEFEFD"/>
<path transform="translate(1433,486)" d="m0 0h93l32 3 40 5 29 5 33 7 30 7 15 4 12 3 15 4 7 2 22 6 17 5 16 4 23 5 21 7 14 3 21 5 23 5 16 4 20 4 10 1 9 2 24 3 5 1v2l-17-1-13-1-18-3-11-2-4-2-14-2-16-4-6-2-31-7-20-6-23-6-13-3-23-6-14-4-17-4-18-5-14-4-24-6-27-6-10-2-21-4-8-2-52-8-32-2-3-1-30-1h-38l-25 1-13 1-38 2-24 3-30 3-24 4-10 2-18 2-26 4-18 2-12 2-15 3-16 2-27 4-12 2-20 3-12 2-52 6-38 4-21 2-25 3-44 4-30 3-25 1-19 2-30 2-15 2-93 7-7 1h-12l-20 2-35 2-4 1-20 2-4 1-16 1-5 1-28 2-50 4-28 3-40 4-21 2-33 2-74 3-114 4h-114l-25-1-37-1-44-2v-3l45 1 19 1 53 1h156l7-1 44-1 65-3 31-1 28-2 14-2 15-1 23-3 14-1 5-1 98-8 35-4 20-2 23-1 4-1h9l21-2 15-1 25-2 7-1 47-3 17-2 23-2 7-1h13l17-2 42-3 21-2 14-1 44-5 35-3 31-4 28-4 50-7 15-3 13-1 19-4 20-2 15-3 59-8 17-3 42-5 64-5z" fill="#F8B3C4"/>
<path transform="translate(1198,976)" d="m0 0h58l45 3 33 3 37 5 35 5 27 4 18 3v1h-17l-54-8-46-6-18-2-36-3-23-1h-69l-97 4-48 3-76 4-117 6-61 2-173 1h-47v-1l29-2 34-1h101l95-2 46-2 60-3 70-4 45-2 48-3z" fill="#F3D1DB"/>
<path transform="translate(894,296)" d="m0 0 3 1-8 4-23 6-22 7-26 8-8 3-16 4-20 6-22 5-27 5-13 3-17 2h-21l-73-5-42-2-49-5-27-3-66-6-18-2-39-3-57-5-70-4-27-3-55-4-21-2-1-2 47 3 39 3 11 2 52 3 59 4 34 3 22 2 39 3 20 2 11 1 4 1 34 3 14 1h21l9 2 10 1 20 3h18l24 2h17l11 1 3 1h10l9 1 13 1h12l21-2 16-4 24-4 12-3 9-2 4-2 28-7 22-7 17-5 15-5 22-6z" fill="#FCF5F7"/>
<path transform="translate(1188,979)" d="m0 0h69l23 1 49 4 79 11 26 4v1h-21l-3-2-27-4-32-4-21-3-18-1-12-2-34-2-43-1h-15l-40 2-45 1-8 1-44 2-51 3-13 1h-14l-54 3-37 2-31 1-21 2-14 1h-220v-1l173-1 61-2 171-9 40-2 31-2z" fill="#FCF5F7"/>
<path transform="translate(1967,985)" d="m0 0h13v15h-152v-1l37-4 31-3 18-2 31-3z" fill="#FEFEFD"/>
<path transform="translate(1198,976)" d="m0 0h24l-4 2-60 2-72 3-70 4-73 4-85 4-18 1-81 2-85 1-58 1h-47v-1l29-2 34-1h101l95-2 46-2 60-3 70-4 45-2 48-3z" fill="#F4BFCB"/>
<path transform="translate(1416,250)" d="m0 0 15 1 5 1 39 5 27 4 26 3 11 1 5 1 18 2 14 2 26 3 27 2 18 2 15 1 38 4 25 1 8 1 19 1 13 2h69l45-4 30-2 29-4 13-2 11-3 18-2v2l-37 7-30 4-16 2-69 5h-58l-39-3-57-5-16-2-27-2-46-4-29-4-37-4-11-2-24-3-36-5-33-4z" fill="#FCF5F7"/>
<path transform="translate(0,991)" d="m0 0h9l40 4 37 4v1h-86z" fill="#F3CAD5"/>
<path transform="translate(1967,985)" d="m0 0h13v3l-36 3-52 5-28 3-11 1h-25v-1l37-4 31-3 18-2 31-3z" fill="#F3CBD6"/>
<path transform="translate(632,996)" d="m0 0h36l7 1-1 2-58 1h-47v-1l29-2z" fill="#F4C8D3"/>
<path transform="translate(1965,988)" d="m0 0h15l-2 2-28 2-24 2-27 3-16 2-3 1h-27v-1l32-3 49-5z" fill="#FCF5F7"/>
<path transform="translate(16,302)" d="m0 0h59l35 1 18 1v2l-55-1h-73v-2h9z" fill="#FCF5F7"/>
<path transform="translate(0,994)" d="m0 0h10l39 4 13 1v1h-62z" fill="#FEFEFD"/>
<path transform="translate(1188,221)" d="m0 0 1 2-17 4-14 3-34 1-21 2-40 8-3-1 12-4 23-4 29-4h31z" fill="#FCF5F7"/>
<path transform="translate(1222,976)" d="m0 0h16l1 1 46 2 26 2 5 1v1l-25-1-11-1-23-1-41-1 2-2z" fill="#F3D8E1"/>
<path transform="translate(0,994)" d="m0 0h10l39 4 13 1v1h-29l-15-3-16-1z" fill="#FCF5F7"/>
<path transform="translate(1222,976)" d="m0 0h16l1 1 18 1v1h-41l2-2z" fill="#F3D4DD"/>
<path transform="translate(658,996)" d="m0 0h10l7 1-1 2h-20l1-2z" fill="#F3D4DD"/>
</svg>
